<svg width="150" height="114" viewBox="0 0 150 114" fill="none" xmlns="http://www.w3.org/2000/svg">
<g clip-path="url(#clip0_28_180)">
<path d="M43.7874 1.10492e-05C51.0981 1.10492e-05 58.4018 1.10492e-05 65.7126 1.10492e-05C67.6579 1.10492e-05 68.2197 0.557094 68.2197 2.4651C68.2197 5.59869 68.2197 8.73228 68.2197 11.8659C68.2197 13.4744 67.5877 14.1708 65.9724 14.1569C65.1367 14.1569 65.1367 14.5051 65.2842 15.1039C66.2604 19.0313 66.4359 23.0006 65.9584 27.0116C65.8601 27.8124 65.6985 28.6062 65.4598 29.3443C65.0875 30.4864 65.6143 30.5142 66.4921 30.5072C70.9165 30.4794 75.3479 30.4933 79.7722 30.4933C83.1081 30.4933 86.4509 30.4655 89.7867 30.5072C90.6435 30.5212 90.9315 30.2775 90.9385 29.4C90.9666 27.1787 90.7348 24.9573 91.1702 22.7359C91.7882 19.5536 93.6001 17.2905 96.5146 16.0092C100.939 14.0594 105.757 15.5983 108.32 19.6441C109.254 21.1134 109.71 22.7499 109.739 24.4838C109.767 26.155 109.781 27.8263 109.739 29.4975C109.717 30.2844 109.984 30.5072 110.764 30.5072C114.732 30.4724 118.707 30.4933 122.675 30.4933C124.697 30.4933 125.132 30.9181 125.14 32.9514C125.147 43.7797 125.14 54.608 125.14 65.4363C125.14 69.373 126.069 73.0846 127.928 76.571C128.201 77.0933 128.496 77.6086 128.721 78.1517C129.648 80.3731 129.515 82.5318 128.412 84.6835C125.989 89.4327 123.63 94.2166 121.207 98.9727C120.849 99.676 120.905 99.8431 121.712 99.8571C125.097 99.9267 125.14 99.9894 125.14 103.353C125.14 106.138 125.154 108.924 125.132 111.709C125.118 113.513 124.634 113.986 122.801 113.986C108.081 113.986 93.3613 113.986 78.6416 113.986C76.7735 113.986 76.324 113.54 76.324 111.716C76.317 108.513 76.317 105.31 76.324 102.106C76.324 100.351 76.7946 99.8501 78.5432 99.8571C79.3228 99.8571 79.4492 99.7317 79.2034 98.924C78.3466 96.0968 78.2272 93.1721 78.3115 90.2404C78.3536 88.7851 78.2834 87.3088 78.7118 85.8882C78.9646 85.0596 78.7469 84.7532 77.7918 84.7601C70.2001 84.7949 62.6155 84.781 55.0239 84.781C53.8651 84.781 52.7063 84.7949 51.5476 84.781C50.2694 84.7601 49.6655 84.1891 49.6514 82.9426C49.6304 80.575 49.6865 78.2074 49.6233 75.8398C49.5601 73.3051 48.5559 71.2578 46.1751 70.081C42.2705 68.1591 37.6635 70.8957 37.516 75.1713C37.4247 77.6782 37.502 80.1851 37.4879 82.692C37.4879 84.1195 36.8067 84.781 35.36 84.781C30.5143 84.781 25.6615 84.781 20.8158 84.781C19.4604 84.781 18.8284 84.1891 18.709 82.8591C18.6809 82.5109 18.6949 82.1627 18.6949 81.8146C18.6949 69.5587 18.6387 57.3029 18.7371 45.0471C18.7581 42.589 18.2033 40.4442 17.0024 38.3343C16.1527 36.8371 15.324 35.3051 15.1484 33.5155C14.9307 31.3011 15.9279 29.4697 16.869 27.6104C18.9899 23.4114 21.1318 19.2194 23.2668 15.0273C23.5687 14.4354 23.5687 14.1499 22.719 14.1429C19.3972 14.1151 19.3059 13.9967 19.3059 10.7239C19.3059 7.90362 19.3059 5.08339 19.3059 2.26316C19.3059 0.487458 19.8186 -0.013916 21.6445 -0.013916C29.0255 -0.013916 36.3994 -0.013916 43.7804 -0.013916L43.7874 1.10492e-05ZM22.2204 49.1208C22.1291 49.3715 22.0659 49.462 22.0659 49.5525C22.0659 59.9282 22.0659 70.2969 22.0448 80.6725C22.0448 81.3619 22.3749 81.4594 22.9578 81.4594C26.3989 81.4455 29.8401 81.4316 33.2813 81.4664C34.0327 81.4733 34.1381 81.1739 34.131 80.5472C34.1029 78.7715 34.1029 76.9958 34.131 75.2201C34.1591 73.4792 34.6648 71.8497 35.655 70.4292C37.9444 67.1424 41.0906 65.7288 45.1358 66.3555C49.0124 66.9544 52.1305 70.081 52.7415 73.9109C53.0926 76.1323 52.896 78.3537 52.9592 80.575C52.9732 81.1461 53.0505 81.4664 53.7598 81.4594C58.9215 81.4316 64.0833 81.4385 69.245 81.4594C69.9122 81.4594 70.0948 81.2087 70.0878 80.6029C70.0667 79.1057 70.0878 77.6086 70.0878 76.1114C70.0878 71.9681 70.0878 67.8248 70.0878 63.6885C70.0878 61.5576 70.6285 61.0214 72.7284 61.0214C75.081 61.0214 77.4336 61.0075 79.7863 61.0214C81.1908 61.0214 82.3917 60.5131 83.4171 59.6218C85.2219 58.048 85.9593 56.0077 85.3764 53.7237C84.7373 51.2098 83.0729 49.5525 80.3692 49.2252C77.8199 48.9119 75.2495 49.1417 72.6862 49.0999C70.6075 49.0651 70.0878 48.5776 70.0878 46.5025C70.0878 42.6377 70.0808 38.773 70.0878 34.9152C70.0878 34.2397 70.0035 33.808 69.1327 33.808C60.3542 33.8289 51.5757 33.8219 42.7902 33.8219C42.3547 33.8219 42.0106 33.8915 41.7297 34.2954C40.2058 36.4959 38.0498 37.8607 35.5637 38.7451C34.8614 38.9958 34.6367 39.344 34.8123 40.0612C35.6761 43.6335 36.5047 47.2128 37.3685 50.7851C38.0076 53.4312 36.891 56.2375 34.6086 57.665C32.2068 59.1691 29.4117 58.9881 27.1644 57.282C25.493 56.0077 24.9171 54.0788 23.969 52.3658C23.4002 51.3282 23.028 50.1792 22.2063 49.1347L22.2204 49.1208ZM121.474 63.6537C121.846 63.1801 121.783 62.8529 121.783 62.5465C121.783 53.3546 121.783 44.1697 121.804 34.9778C121.804 34.0586 121.502 33.7801 120.589 33.794C116.621 33.8358 112.653 33.8149 108.685 33.808C106.929 33.808 106.417 33.2927 106.417 31.5936C106.417 29.1911 106.438 26.7887 106.403 24.3863C106.368 21.8446 104.507 19.4492 102.133 18.7946C98.0736 17.6735 94.3445 20.438 94.2813 24.63C94.2462 26.8584 94.2813 29.0867 94.2743 31.315C94.2743 33.3762 93.8389 33.8149 91.7391 33.8149C86.0506 33.8149 80.3621 33.8358 74.6666 33.801C73.7045 33.801 73.3745 34.0935 73.3885 35.0614C73.4377 38.2298 73.4377 41.3982 73.3885 44.5666C73.3745 45.5415 73.7537 45.8479 74.6877 45.834C76.5839 45.8131 78.48 45.8131 80.3762 45.9036C84.7233 46.1056 88.2277 49.5455 88.8457 53.9186C89.4988 58.5633 86.2824 63.0827 81.6684 64.1202C79.3438 64.6425 76.9771 64.3291 74.6315 64.35C73.6413 64.357 73.3745 64.6773 73.3815 65.6174C73.4236 70.457 73.4306 75.2967 73.3815 80.1363C73.3674 81.2018 73.6905 81.4873 74.7509 81.4803C83.1432 81.4385 91.5424 81.4385 99.9347 81.4803C101.157 81.4803 102.105 81.4037 102.526 80.0458C102.667 79.5793 103.116 79.1963 103.46 78.8063C104.949 77.1281 106.838 76.0418 108.931 75.2549C109.366 75.0878 109.914 75.0181 109.739 74.287C108.875 70.7843 108.046 67.2747 107.189 63.772C106.648 61.5646 106.824 59.4895 108.334 57.679C111.417 53.9883 117.183 54.8169 119.268 59.2179C119.957 60.6733 120.701 62.1008 121.481 63.6537H121.474ZM45.0515 14.1778C40.1355 14.1778 35.2125 14.2335 30.2966 14.1499C28.2389 14.1151 26.9608 14.9786 26.0829 16.7473C23.7724 21.3989 21.4198 26.0297 19.0671 30.6535C18.3438 32.081 18.2736 33.5085 18.9899 34.95C20.9212 38.8147 22.8665 42.6795 24.8118 46.5443C26.0127 48.9258 27.1785 51.3282 28.4215 53.6819C29.1378 55.0467 30.732 55.6943 32.0734 55.2278C33.2953 54.803 34.4049 53.8281 34.131 52.0106C33.9204 50.6388 33.5903 49.2879 33.2743 47.937C32.579 44.9287 31.8346 41.9344 31.1674 38.9122C30.7952 37.2062 31.0972 36.7814 32.7756 36.2313C34.1381 35.7856 35.4935 35.3121 36.7084 34.5531C39.1664 33.0072 40.2409 30.737 40.2058 27.882C40.1917 26.8235 40.8027 26.1899 41.7438 26.155C42.6356 26.1202 43.4222 26.7748 43.5205 27.7288C43.5767 28.2789 43.6048 28.8639 43.4643 29.3931C43.2115 30.3471 43.5978 30.5142 44.4616 30.5142C49.6585 30.4864 54.8623 30.5003 60.0592 30.5003C61.5621 30.5003 61.7587 30.4237 62.159 28.9335C63.4021 24.2749 63.0509 19.6441 61.829 15.0412C61.6534 14.3797 61.2882 14.1499 60.5578 14.1569C55.3961 14.1987 50.2273 14.1778 45.0655 14.1778H45.0515ZM99.3307 99.8571C104.422 99.8571 109.521 99.8501 114.612 99.8571C116.263 99.8571 117.414 99.0841 118.138 97.6844C120.533 92.998 122.899 88.3046 125.28 83.6111C126.038 82.114 126.305 80.6447 125.441 79.0431C124.241 76.8217 123.18 74.5237 122.042 72.2675C120.041 68.2774 118.018 64.3013 116.024 60.3042C115.308 58.8627 113.461 58.3683 112.274 58.821C110.687 59.4198 109.97 60.715 110.342 62.4002C110.876 64.8375 111.48 67.2608 112.042 69.691C112.47 71.5503 112.857 73.4235 113.327 75.2758C113.636 76.4944 113.25 77.3509 112.07 77.6782C111.059 77.9637 110.069 78.291 109.113 78.7367C106.88 79.7812 105.118 81.2505 104.528 83.7713C104.345 84.5652 104.415 85.366 104.324 86.1598C104.169 87.4968 103.067 88.2071 101.936 87.6918C101.1 87.3157 100.981 86.5706 101.009 85.7629C101.03 85.2267 101.093 84.7601 100.237 84.7671C94.5131 84.8019 88.7825 84.788 83.0589 84.7741C82.49 84.7741 82.2934 85.0108 82.1249 85.5192C81.6754 86.9049 81.6614 88.3324 81.6262 89.753C81.542 92.8866 81.6754 95.9923 82.6586 99.0284C82.9044 99.7805 83.2906 99.871 83.9438 99.871C89.0704 99.8571 94.2041 99.864 99.3307 99.864V99.8571ZM43.7804 10.8283C50.452 10.8283 57.1307 10.8213 63.8024 10.8422C64.5889 10.8422 64.926 10.6821 64.8839 9.81163C64.8066 8.10556 64.8628 6.3995 64.8628 4.69343C64.8628 3.29376 64.8628 3.29376 63.4021 3.29376C54.1601 3.29376 44.9251 3.29376 35.6831 3.29376C31.7152 3.29376 27.7473 3.31465 23.7724 3.27983C22.9016 3.27287 22.6066 3.53749 22.6347 4.40793C22.6909 6.18363 22.6979 7.95933 22.6347 9.73503C22.6066 10.5985 22.8594 10.8562 23.7443 10.8492C30.416 10.8144 37.0947 10.8283 43.7663 10.8283H43.7804ZM100.827 103.186C94.1198 103.186 87.413 103.2 80.7133 103.172C79.8916 103.172 79.5967 103.395 79.6247 104.223C79.6809 105.929 79.6388 107.635 79.6388 109.334C79.6388 110.706 79.6388 110.713 81.0574 110.713C87.2726 110.713 93.4878 110.713 99.6959 110.713C106.613 110.713 113.531 110.692 120.441 110.734C121.516 110.734 121.86 110.4 121.811 109.355C121.733 107.691 121.748 106.013 121.811 104.349C121.839 103.45 121.572 103.158 120.624 103.165C114.022 103.207 107.421 103.186 100.827 103.186Z" fill="#ADADAD" stroke="#ADADAD" stroke-width="0.4"/>
<path d="M5.45636 69.9975C6.61512 69.9975 7.77388 69.9696 8.93264 70.0045C10.0914 70.0393 10.7235 70.6172 10.7586 71.5852C10.7937 72.5392 10.1616 73.2355 9.01692 73.2634C6.60107 73.3191 4.17821 73.3191 1.75534 73.2634C0.673829 73.2425 -0.0354734 72.4556 0.00666337 71.5643C0.0488002 70.6521 0.758103 70.0323 1.88175 70.0045C3.07563 69.9696 4.2695 69.9975 5.46338 70.0045L5.45636 69.9975Z" fill="#ADADAD"/>
<path d="M144.614 43.9887C143.455 43.9887 142.296 44.0095 141.137 43.9887C139.965 43.9608 139.234 43.2923 139.241 42.3174C139.248 41.4261 139.972 40.6879 141.06 40.6671C143.448 40.6183 145.836 40.6183 148.216 40.6671C149.277 40.6879 150 41.4539 149.993 42.3453C149.993 43.3062 149.256 43.9538 148.083 43.9817C146.924 44.0095 145.765 43.9817 144.607 43.9817L144.614 43.9887Z" fill="#ADADAD"/>
<path d="M5.38651 96.2639C5.33735 95.8043 5.52696 95.4143 5.87108 95.0731C7.58465 93.3879 9.26309 91.6749 10.9977 90.0106C11.7913 89.2446 12.7253 89.2725 13.4276 89.9619C14.0807 90.6025 14.0597 91.6052 13.3012 92.3712C11.6508 94.0425 9.97942 95.6998 8.28693 97.3293C7.46526 98.1231 6.461 98.1231 5.76574 97.4268C5.44269 97.0995 5.36544 96.7095 5.37949 96.2569L5.38651 96.2639Z" fill="#ADADAD"/>
<path d="M144.613 17.6177C144.634 18.1539 144.487 18.5369 144.129 18.8851C142.408 20.5493 140.737 22.2554 139.009 23.9127C138.23 24.6648 137.352 24.6787 136.678 24.052C135.961 23.3905 135.905 22.4295 136.656 21.6565C138.321 19.9365 140.027 18.2583 141.741 16.5871C142.296 16.0439 143.005 15.7932 143.757 16.1554C144.353 16.4478 144.726 16.9492 144.62 17.6107L144.613 17.6177Z" fill="#ADADAD"/>
<path d="M29.7068 101.055C29.7068 99.8709 29.6928 98.6941 29.7068 97.5103C29.7279 96.4727 30.3248 95.86 31.2869 95.8251C32.3052 95.7903 33.0005 96.3056 33.0286 97.3432C33.0848 99.8431 33.0777 102.35 33.0286 104.85C33.0075 105.755 32.1929 106.41 31.3642 106.396C30.5004 106.382 29.7349 105.63 29.7138 104.704C29.6857 103.485 29.7068 102.273 29.7068 101.055Z" fill="#ADADAD"/>
<path d="M120.293 13.0427C120.293 14.1569 120.307 15.2641 120.293 16.3783C120.272 17.5064 119.689 18.147 118.699 18.1749C117.646 18.1957 116.978 17.5621 116.964 16.3992C116.936 14.0733 116.936 11.7405 116.964 9.41473C116.978 8.30753 117.723 7.5485 118.671 7.56939C119.598 7.59028 120.286 8.39109 120.293 9.49829C120.307 10.6821 120.293 11.8589 120.293 13.0427Z" fill="#ADADAD"/>
</g>
<defs>
<clipPath id="clip0_28_180">
<rect width="150" height="114" fill="white"/>
</clipPath>
</defs>
</svg>
