<svg width="122" height="114" viewBox="0 0 122 114" fill="none" xmlns="http://www.w3.org/2000/svg">
<g clip-path="url(#clip0_28_175)">
<path d="M31.5409 57.0828C31.5581 72.2992 44.9478 84.1386 60.1194 82.3958C65.9806 81.7216 70.9423 79.2588 75.1649 75.2076C76.7347 73.6991 77.5197 73.6763 79.038 75.1219C85.3403 81.133 91.637 87.1499 97.9336 93.1667C99.3832 94.5495 99.4061 95.5266 98.0253 96.9037C96.4096 98.515 94.7767 100.121 93.161 101.732C91.1271 103.76 88.7494 104.223 86.0623 103.286C84.2059 102.641 82.4642 101.766 80.8084 100.726C79.7828 100.081 78.7916 100.052 77.6973 100.549C76.4425 101.121 75.1649 101.652 73.8643 102.121C72.5809 102.583 71.8189 103.395 71.5439 104.755C71.1772 106.577 70.4724 108.297 69.6761 109.983C68.4156 112.663 66.3129 114.011 63.3336 114.006C59.2313 114 55.1347 114.006 51.0325 114.006C48.0589 114.006 45.9619 112.68 44.7129 109.966C43.9566 108.315 43.2863 106.635 42.9425 104.858C42.679 103.498 41.9112 102.681 40.6393 102.206C39.3043 101.709 37.9751 101.166 36.6745 100.583C35.6318 100.115 34.7093 100.149 33.7067 100.766C31.9248 101.869 30.0513 102.818 28.0288 103.435C25.5995 104.178 23.3708 103.846 21.5259 102.046C18.3231 98.9264 15.149 95.7666 12.0207 92.5724C10.2217 90.7383 9.86075 88.5212 10.6457 86.0985C11.2816 84.1386 12.2098 82.3215 13.3041 80.5845C13.9516 79.556 13.9974 78.5846 13.4818 77.4932C12.9317 76.3333 12.4161 75.1505 12.0093 73.9391C11.5108 72.4477 10.6285 71.5335 9.01852 71.2535C7.08197 70.9164 5.2772 70.1393 3.54691 69.2251C1.28951 68.0365 0.0634146 66.1452 0.0347674 63.6025C-0.0167975 59.2313 -0.0167975 54.8543 0.0347674 50.4831C0.0634146 47.8776 1.34108 45.9576 3.66723 44.7806C5.46054 43.872 7.34553 43.1921 9.31072 42.775C10.5655 42.5064 11.3275 41.815 11.7801 40.6608C12.3588 39.2037 12.9661 37.7581 13.5849 36.3124C13.9745 35.3982 13.8427 34.5811 13.3271 33.7468C12.2041 31.9184 11.2301 30.0156 10.5884 27.9585C9.792 25.4101 10.2905 23.1645 12.1754 21.2617C15.1547 18.2505 18.1283 15.2335 21.1535 12.2736C23.2562 10.2109 25.7141 9.68518 28.5101 10.8166C30.2404 11.5137 31.942 12.2451 33.5004 13.2736C34.4572 13.9078 35.437 13.9707 36.4854 13.5136C37.9694 12.8736 39.4705 12.2508 40.9716 11.6508C42.0659 11.2165 42.5586 10.3537 42.7878 9.26806C43.229 7.2053 43.9795 5.26254 44.9879 3.41121C46.151 1.26846 47.973 0.0799466 50.4137 0.0456626C54.8941 -0.0114774 59.3803 -0.0114774 63.8607 0.0456626C66.4332 0.0799466 68.2723 1.40559 69.424 3.66834C70.312 5.41111 70.9938 7.2453 71.4006 9.15378C71.6871 10.4909 72.3804 11.348 73.6924 11.7994C74.9529 12.2336 76.1847 12.7479 77.3879 13.3193C78.6312 13.9135 79.7656 13.8564 80.9 13.0907C82.4928 12.0165 84.2632 11.3194 86.0565 10.6566C88.715 9.67947 91.0411 10.2509 93.0407 12.1479C94.834 13.8507 96.5586 15.6277 98.2889 17.3934C99.2972 18.4276 99.3259 19.5304 98.2889 20.5246C91.7573 26.7757 85.2086 33.0154 78.6426 39.238C77.5197 40.3008 76.6144 40.1751 75.3138 38.9294C69.0917 32.9812 61.6892 30.507 53.1753 31.7926C40.6851 33.6725 31.5409 44.4663 31.5581 57.0771L31.5409 57.0828ZM57.0999 27.4614C58.3375 27.5471 59.5808 27.57 60.8069 27.7243C66.5822 28.4614 71.7329 30.667 76.1561 34.4554C76.9353 35.1239 77.3478 35.1182 78.0983 34.3868C83.1918 29.4499 88.3254 24.5587 93.4876 19.6961C94.1751 19.0504 94.0949 18.7304 93.4761 18.1648C92.4563 17.2334 91.4938 16.2391 90.5369 15.2449C89.5286 14.1992 88.4056 13.9364 87.0363 14.4964C85.4893 15.1306 83.9767 15.8163 82.5558 16.702C80.499 17.9819 78.3619 18.1019 76.1446 17.1248C74.8383 16.5477 73.5205 15.9934 72.1855 15.4849C69.7276 14.5535 68.1463 12.9022 67.5848 10.2909C67.2353 8.66237 66.6452 7.10817 65.9577 5.58824C65.4649 4.49687 64.6456 3.97689 63.4997 3.97118C59.2542 3.95404 55.0144 3.95975 50.7689 3.97118C49.6116 3.97118 48.8209 4.50258 48.2938 5.5711C47.486 7.19959 46.9359 8.90808 46.5062 10.668C45.9447 12.965 44.541 14.5192 42.3524 15.3992C40.9372 15.9649 39.522 16.5363 38.1298 17.1477C35.7578 18.1933 33.4889 18.0333 31.3347 16.6105C30.0513 15.7649 28.6418 15.1878 27.2439 14.5821C25.9089 13.9992 24.7974 14.2278 23.7489 15.2963C20.9472 18.1476 18.0939 20.9475 15.2407 23.753C14.2438 24.7301 14.0146 25.8101 14.4787 27.13C15.086 28.8442 15.9454 30.4213 16.8621 31.9869C17.9965 33.9297 18.0768 35.9296 17.1715 37.9923C16.5413 39.4265 15.9397 40.8779 15.3667 42.335C14.4615 44.6377 12.8229 46.0719 10.405 46.6148C8.77216 46.9805 7.21375 47.5519 5.67826 48.2147C4.48081 48.7289 3.9136 49.626 3.90787 50.8831C3.89641 55.0201 3.89641 59.157 3.90787 63.2939C3.90787 64.4939 4.46935 65.3281 5.57513 65.8938C7.24813 66.7452 9.01852 67.2652 10.8176 67.7166C12.9604 68.2537 14.4328 69.545 15.2808 71.5678C15.9053 73.0591 16.4897 74.5619 17.1543 76.0361C18.1627 78.2932 18.0481 80.4473 16.7475 82.5615C15.8767 83.9786 15.1089 85.4471 14.5474 87.0299C14.0776 88.3498 14.3183 89.3955 15.3324 90.384C18.1971 93.1781 21.0274 95.9951 23.8234 98.8521C24.7859 99.8349 25.8287 100.029 27.072 99.6235C28.7564 99.0693 30.3148 98.2636 31.8274 97.3494C33.8499 96.1266 35.9182 95.9608 38.1011 96.9379C39.4877 97.5608 40.9143 98.0979 42.3295 98.6521C44.6728 99.5778 46.1739 101.212 46.7239 103.692C47.0849 105.32 47.6235 106.886 48.3282 108.4C48.8496 109.52 49.6689 110.103 50.8892 110.109C55.0832 110.12 59.2829 110.12 63.4768 110.109C64.6857 110.109 65.5394 109.554 66.0665 108.435C66.8514 106.749 67.4359 105 67.8827 103.195C68.3812 101.166 69.6073 99.7264 71.5209 98.8921C72.9189 98.2865 74.3742 97.8122 75.7378 97.1436C78.3275 95.8694 80.7625 96.0009 83.1803 97.5779C84.4981 98.4407 85.9362 99.0864 87.4259 99.595C88.5717 99.9892 89.5744 99.8007 90.4338 98.915C91.4307 97.8922 92.3933 96.8237 93.4761 95.9037C94.2783 95.2237 94.0204 94.858 93.4017 94.2695C88.2108 89.3669 83.0314 84.4471 77.8978 79.4931C77.2275 78.8417 76.8894 79.0074 76.2878 79.5217C59.7126 93.6524 33.7009 85.2928 28.447 64.1625C23.8348 45.6091 37.9407 27.5814 57.1114 27.4729L57.0999 27.4614Z" fill="#ADADAD"/>
<path d="M68.2265 67.4767C74.4601 67.4767 80.5104 67.4995 86.5607 67.4538C87.7983 67.4424 88.7092 67.8024 89.5916 68.688C95.2694 74.3849 101.01 80.0189 106.688 85.7158C107.445 86.4757 107.846 86.43 108.625 85.7386C111.495 83.1902 115.678 83.1216 118.766 85.4586C121.785 87.7442 122.794 91.9269 121.138 95.321C119.448 98.7837 115.552 100.584 111.787 99.6351C108.195 98.7265 105.617 95.3267 105.8 91.5897C105.84 90.7384 105.617 90.2013 105.027 89.6127C99.1311 83.7959 93.2584 77.9619 87.4029 72.0993C86.8816 71.5736 86.3487 71.3908 85.6383 71.3908C77.915 71.4079 70.1917 71.3908 62.4684 71.4136C61.8611 71.4136 61.2423 71.545 60.6407 71.6822C54.5217 73.0821 48.2365 70.6537 44.7186 65.5225C41.1263 60.2885 41.1492 53.6545 44.7759 48.3862C48.2938 43.2779 54.5847 40.8837 60.7324 42.3294C61.4772 42.5065 62.2221 42.6265 62.9898 42.6208C70.3349 42.6093 77.6744 42.6093 85.0195 42.6208C85.8216 42.6208 86.4633 42.4779 87.0706 41.878C93.1553 35.9125 99.2571 29.97 105.382 24.0503C106.064 23.3932 106.304 22.8446 106.041 21.839C105.027 17.9992 106.917 14.1936 110.527 12.4909C113.758 10.9652 117.969 12.0223 120.181 14.9136C122.605 18.0734 122.501 22.2332 119.929 25.1474C117.339 28.0786 113.208 28.81 109.799 26.833C108.969 26.3473 108.527 26.4559 107.88 27.0901C101.635 33.227 95.3439 39.3238 89.0988 45.4606C88.291 46.2492 87.443 46.6091 86.3086 46.6034C80.4016 46.5691 74.4888 46.5863 68.0833 46.5863C69.4412 47.9805 70.2032 49.3576 70.9824 50.7232C71.1829 51.0718 71.6871 50.9175 72.0595 50.9175C81.45 50.9175 90.8463 50.9175 100.237 50.9346C100.907 50.9346 101.423 50.7804 101.875 50.2775C102.448 49.6433 103.039 49.0147 103.68 48.4491C105.124 47.1691 106.081 45.952 105.875 43.655C105.548 40.0266 108.407 36.8782 111.965 36.0725C115.689 35.2326 119.373 36.9411 121.086 40.3009C122.691 43.4493 121.923 47.5177 119.287 49.8318C116.463 52.3174 112.395 52.6888 109.393 50.5404C108.281 49.7461 107.771 49.9404 106.872 50.8204C101.904 55.6716 104.333 54.7345 97.4065 54.7859C89.4942 54.843 81.5761 54.8145 73.6637 54.7802C72.5809 54.7802 72.071 54.963 72.3001 56.1915C72.4606 57.06 72.0079 58.2886 72.4606 58.7857C73.0851 59.4771 74.3455 59.0371 75.331 59.0371C83.6272 59.06 91.9235 59.1057 100.22 59.0085C102.151 58.9857 103.634 59.4428 104.832 60.9684C105.416 61.7112 106.052 62.6198 106.86 62.9283C107.932 63.334 108.212 61.9055 108.946 61.4027C112.074 59.2485 115.724 59.2314 118.8 61.5113C121.522 63.5283 122.633 67.3395 121.442 70.5965C120.233 73.9049 116.961 76.0991 113.443 75.9505C109.776 75.7963 106.39 72.905 105.955 69.2823C105.783 67.8367 105.055 66.9338 104.202 65.8939C102.368 63.6769 100.243 62.8826 97.2862 62.9683C89.0931 63.2026 80.8886 63.0655 72.684 63.0312C71.584 63.0312 70.8391 63.1969 70.3407 64.3454C69.8766 65.4025 69.0458 66.3053 68.238 67.471L68.2265 67.4767ZM57.1286 68.1224C63.3794 68.1452 68.2552 63.3283 68.3182 57.0658C68.3812 50.9232 63.3794 45.8949 57.2031 45.8949C50.9809 45.8949 46.0364 50.8032 46.0192 56.9915C46.002 63.214 50.8778 68.1052 57.1286 68.1281V68.1224ZM113.867 95.9781C116.125 95.9495 117.929 94.1096 117.924 91.8469C117.912 89.5727 116.107 87.7785 113.827 87.7728C111.501 87.7671 109.616 89.6698 109.69 91.9669C109.759 94.2125 111.633 96.0067 113.873 95.9781H113.867ZM113.798 39.8095C111.53 39.8095 109.713 41.5923 109.685 43.8379C109.656 46.1063 111.553 48.0262 113.821 48.0205C116.05 48.0148 117.895 46.1863 117.924 43.9579C117.958 41.638 116.13 39.8095 113.798 39.8095ZM117.929 67.9052C117.947 65.6939 116.107 63.814 113.879 63.7683C111.616 63.7226 109.656 65.6482 109.679 67.9052C109.696 70.1051 111.593 71.9679 113.81 71.9679C116.062 71.9679 117.912 70.1451 117.929 67.9052ZM117.924 19.9762C117.952 17.7363 116.153 15.8735 113.907 15.8221C111.598 15.7707 109.679 17.622 109.679 19.9133C109.679 22.1247 111.535 23.9874 113.77 24.0046C116.021 24.0274 117.889 22.2104 117.924 19.9819V19.9762Z" fill="#ADADAD"/>
<path d="M20.2248 57.2543C20.1618 38.4781 34.3422 22.5532 52.8769 20.4676C61.4481 19.5019 69.4521 21.2904 76.8145 25.8102C77.3416 26.1301 77.8687 26.4787 78.3098 26.9015C79.0489 27.6272 79.1291 28.5072 78.5447 29.3585C77.926 30.2614 77.0494 30.5413 76.0524 30.0157C75.2962 29.6157 74.6029 29.1014 73.8638 28.6672C54.7733 17.5134 30.2972 27.8843 25.1636 49.2947C19.5889 72.5392 39.8768 93.801 63.3331 89.287C67.739 88.4413 71.8184 86.7842 75.5482 84.2872C75.7832 84.1272 76.0181 83.9558 76.2587 83.8073C77.4619 83.0644 78.6364 83.213 79.2724 84.1901C79.9026 85.15 79.6563 86.1728 78.5276 87.0128C76.2243 88.727 73.7034 90.0812 71.0449 91.1555C49.2788 99.9322 24.8084 86.3671 20.7577 63.294C20.3967 61.2312 20.2936 59.1399 20.2248 57.2429V57.2543Z" fill="#ADADAD"/>
<path d="M57.1115 50.3232C60.8814 50.3061 63.8722 53.2202 63.8894 56.9343C63.9123 60.7627 60.9559 63.7454 57.1516 63.7397C53.4045 63.7397 50.4539 60.797 50.4424 57.0429C50.431 53.2945 53.3587 50.3403 57.1115 50.3232ZM57.1115 59.7799C58.6699 59.8141 59.9476 58.5856 59.9533 57.0314C59.9647 55.4944 58.6871 54.2087 57.163 54.2087C55.6734 54.2087 54.453 55.4029 54.4072 56.9057C54.3556 58.4999 55.5244 59.7399 57.1115 59.7742V59.7799Z" fill="#ADADAD"/>
</g>
<defs>
<clipPath id="clip0_28_175">
<rect width="121.917" height="114" fill="white"/>
</clipPath>
</defs>
</svg>
