<svg width="37" height="60" viewBox="0 0 37 60" fill="none" xmlns="http://www.w3.org/2000/svg">
<path d="M26.6255 32.1914C26.3859 32.346 26.0943 32.4946 25.8443 32.7086C24.912 33.4992 24.5891 34.5811 24.6724 35.8769C24.7349 36.8518 25.1672 37.5532 25.8182 38.118C27.3494 39.4376 28.8806 40.7454 30.4117 42.0591C31.9012 43.3371 33.396 44.6211 34.8803 45.905C35.5573 46.4935 36.0469 47.2485 36.4166 48.1223C37.0781 49.6856 37.1041 51.3144 36.8541 52.9848C36.7135 53.9299 36.375 54.78 35.974 55.6122C35.2292 57.1696 34.1355 58.2812 32.6929 58.9351C32.3491 59.0896 31.969 59.1193 31.62 59.256C31.2398 59.4047 30.8648 59.5057 30.4638 59.47C30.2503 59.4522 30.042 59.4165 29.8284 59.369C30.2867 59.2382 30.6982 59.0123 31.094 58.7329C31.7294 58.2812 32.1669 57.6451 32.4533 56.8545C32.745 56.0461 32.7814 55.2079 32.5731 54.3817C32.4481 53.8883 32.2502 53.4009 31.9169 53.0145C31.6721 52.7292 31.4534 52.4141 31.1982 52.1466C30.9586 51.891 30.6826 51.683 30.4222 51.4511C30.042 51.1182 29.667 50.7735 29.2816 50.4465C29.0941 50.286 28.8806 50.1493 28.6931 49.9888C28.4639 49.7926 28.2452 49.5727 28.016 49.3765C27.6306 49.0437 27.24 48.7286 26.8546 48.3957C26.4692 48.0628 26.0943 47.724 25.7141 47.3911C25.6359 47.3257 25.5474 47.2841 25.4693 47.2187C24.7818 46.6124 24.0787 46.0239 23.4173 45.3879C22.8861 44.8767 22.3913 44.3179 21.9018 43.7591C21.5945 43.4025 21.3705 42.9745 21.1362 42.5465C20.7872 41.9164 20.5633 41.2269 20.4383 40.5195C20.2873 39.6575 20.2456 38.754 20.4175 37.8921C20.6258 36.8696 21.0216 35.9185 21.6414 35.1161C22.058 34.5751 22.5059 34.0758 23.0267 33.6716C23.8339 33.0474 24.7089 32.5957 25.662 32.346C25.9849 32.2568 26.3234 32.2449 26.6255 32.2033V32.1914Z" fill="url(#paint0_linear_9_120)"/>
<path d="M30.2128 32.2568C30.9107 32.3103 31.5201 32.5243 32.0877 32.9048C32.7752 33.3684 33.3637 33.9391 33.7491 34.7594C34.171 35.6451 34.2855 36.6021 34.072 37.5473C33.7439 39.0096 32.895 40.0201 31.3326 40.0855C30.3899 40.1271 29.6556 39.6754 29.1348 38.8134C28.5827 37.898 28.4838 36.8815 28.8275 35.8472C29.0202 35.2706 29.39 34.8248 29.8743 34.5276C30.1556 34.3552 30.4628 34.2422 30.7337 34.058C31.0566 33.838 31.1086 33.2139 30.8482 32.9048C30.692 32.7205 30.5097 32.5659 30.343 32.3936C30.3118 32.3579 30.2753 32.3222 30.2128 32.2568Z" fill="url(#paint1_linear_9_120)"/>
<path d="M25.8385 15.0421C26.0989 15.4939 26.3541 15.8684 26.552 16.2845C26.8541 16.9086 27.1249 17.5506 27.4009 18.1926C27.4738 18.3591 27.4947 18.5552 27.5832 18.7038C27.6561 18.8227 27.802 18.8941 27.9113 18.9832C27.953 18.8346 28.0415 18.6741 28.0311 18.5314C28.0103 18.3056 27.9269 18.0797 27.8488 17.8597C27.6145 17.1999 27.3645 16.5401 27.1249 15.8803C26.6406 14.5309 26.151 13.1815 25.6823 11.8262C25.125 10.2272 24.5886 8.62222 24.0417 7.02319C23.9011 6.61303 23.7501 6.20287 23.599 5.79271C22.9585 4.02724 22.3491 2.24394 21.7346 0.466576C21.2294 -1.00762 20.5107 1.4355 20.3596 1.96455C19.9221 3.49225 19.3128 4.99022 18.7555 6.46442C18.5576 6.98158 18.3649 7.49874 18.1722 8.02184C18.0681 8.29528 17.9691 8.57467 17.865 8.8481C17.792 9.05021 17.5785 9.41282 17.5785 9.62681C17.3754 10.1856 17.2035 10.7562 17.0108 11.321C16.7973 11.9392 16.5734 12.5574 16.3494 13.1756C16.1255 13.7938 15.8859 14.4001 15.6672 15.0183C15.2713 16.1656 14.8964 17.3247 14.4953 18.4661C13.9797 19.9224 13.4381 21.3669 12.9173 22.8173C12.4954 23.9943 12.0892 25.1832 11.6726 26.3601C11.1205 27.9176 10.5632 29.475 10.0164 31.0324C9.74037 31.823 9.47997 32.6255 9.20394 33.4161C8.71438 34.8308 8.21441 36.2397 7.72485 37.6544C7.41237 38.5461 7.12071 39.4496 6.80302 40.3353C6.2718 41.8095 5.71974 43.2718 5.18852 44.7401C4.9177 45.495 4.67813 46.2678 4.41252 47.0227C4.19378 47.6409 3.95421 48.2472 3.73547 48.8654C3.52194 49.4599 3.32403 50.0603 3.1105 50.6547C2.81885 51.4631 2.51157 52.2597 2.23034 53.0681C1.87098 54.0905 1.54287 55.1248 1.16789 56.1413C0.975194 56.6644 0.766871 57.1756 0.55334 57.6928C0.443971 57.9544 0.334602 58.21 0.23044 58.4715C0.152319 58.6558 -0.0612115 58.9946 0.0169095 59.2027C0.0637821 59.3275 0.199192 59.3632 0.318977 59.375C1.78765 59.5534 3.26674 59.3929 4.73542 59.381C6.26138 59.3691 7.78735 59.4107 9.3081 59.4345C10.2456 59.4464 10.5945 59.1611 10.8445 58.1386C11.3132 56.2186 11.9642 54.364 12.61 52.5093C13.9849 48.5742 15.3495 44.6271 16.7192 40.692C16.9796 39.9489 17.2244 39.1999 17.4848 38.4569C17.6254 38.0527 17.7764 37.6604 17.917 37.2561C18.1045 36.7033 18.2504 36.1267 18.4743 35.5977C18.8545 34.7001 19.1045 33.7549 19.417 32.8335C19.7972 31.722 20.2398 30.6341 20.6252 29.5285C21.0263 28.3812 21.3804 27.2161 21.7814 26.0629C22.0158 25.3853 22.2918 24.7314 22.5522 24.0716C22.5678 24.024 22.5939 23.9824 22.6095 23.9349C23.1616 22.2764 23.7136 20.612 24.2709 18.9535C24.5834 18.0202 24.875 17.0751 25.2188 16.1537C25.3594 15.7792 25.6041 15.4523 25.8437 15.0302L25.8385 15.0421Z" fill="url(#paint2_linear_9_120)"/>
<defs>
<linearGradient id="paint0_linear_9_120" x1="18.9521" y1="51.8418" x2="43.6298" y2="60.3033" gradientUnits="userSpaceOnUse">
<stop stop-color="#BFBFFF"/>
<stop offset="1" stop-color="#8DB8F9"/>
</linearGradient>
<linearGradient id="paint1_linear_9_120" x1="28.178" y1="37.8967" x2="36.0964" y2="41.041" gradientUnits="userSpaceOnUse">
<stop stop-color="#BFBFFF"/>
<stop offset="1" stop-color="#8DB8F9"/>
</linearGradient>
<linearGradient id="paint2_linear_9_120" x1="-2.27286" y1="42.8203" x2="41.0141" y2="54.257" gradientUnits="userSpaceOnUse">
<stop stop-color="#BFBFFF"/>
<stop offset="1" stop-color="#8DB8F9"/>
</linearGradient>
</defs>
</svg>
