<svg width="114" height="114" viewBox="0 0 114 114" fill="none" xmlns="http://www.w3.org/2000/svg">
<g clip-path="url(#clip0_28_169)">
<path d="M92.7393 111.446C88.2767 111.39 84.8946 110.031 81.7856 107.618C75.1459 102.462 69.655 96.1073 63.5213 90.4246C60.7538 87.8588 58.0746 85.1964 55.3793 82.5541C54.9616 82.1439 54.7246 82.1801 54.339 82.5622C51.6799 85.2366 48.9967 87.8869 46.3296 90.5533C43.2848 93.5978 40.2442 96.6503 37.2035 99.7028C34.0905 102.824 30.9815 105.944 27.8685 109.061C26.5952 110.336 25.3218 111.611 24.0405 112.878C22.5422 114.358 21.7148 114.386 20.2286 112.91C16.8384 109.544 13.4804 106.15 10.1023 102.771C7.05758 99.7229 4.01287 96.6744 0.952088 93.642C-0.321229 92.3832 -0.321229 91.3175 0.944054 90.0506C6.02125 84.9712 11.0784 79.8716 16.1596 74.7922C20.8391 70.1189 25.5347 65.4577 30.2303 60.8006C31.6402 59.401 31.6402 59.4251 30.2464 58.0577C23.6147 51.5506 16.9911 45.0314 10.3513 38.5282C9.70062 37.8888 9.36723 37.1085 9.10613 36.276C6.24218 27.0944 3.37822 17.9168 0.51426 8.73925C0.466058 8.57838 0.437941 8.41349 0.385723 8.25664C0.0965155 7.40001 0.136683 6.60773 0.839618 5.94817C1.53854 5.29262 2.33386 5.33686 3.1814 5.6023C7.79667 7.06219 12.416 8.51403 17.0352 9.96185C21.8152 11.4579 26.5911 12.95 31.3751 14.43C32.1945 14.6834 32.8734 15.1016 33.4879 15.7049C40.1036 22.2362 46.7312 28.7514 53.3549 35.2706C54.5278 36.4248 54.5439 36.453 55.6927 35.3028C60.7257 30.2716 65.7386 25.2203 70.7676 20.1891C76.2224 14.7356 81.6892 9.29425 87.152 3.8448C88.1683 2.83132 89.1725 1.79774 90.1847 0.78024C91.1768 -0.217149 92.3939 -0.281497 93.382 0.695784C95.9648 3.26165 98.5034 5.86371 101.074 8.43762C104.047 11.4137 107.035 14.3737 110.007 17.3458C111.14 18.4759 112.289 19.5939 113.374 20.7763C114.225 21.7013 114.209 22.6263 113.325 23.5352C111.044 25.8799 108.726 28.1883 106.416 30.5089C103.332 33.6056 100.243 36.6983 97.1498 39.787C94.1532 42.7832 91.1447 45.7714 88.1442 48.7635C84.8102 52.0855 81.4763 55.4074 78.1384 58.7254C77.7005 59.1597 77.8893 59.4452 78.2549 59.7992C83.7337 65.0435 89.2086 70.2918 94.6794 75.5442C97.3787 78.1382 100.186 80.6317 102.745 83.3544C107.959 88.9004 110.256 96.2119 105.657 103.893C102.673 108.88 98.0013 111.269 92.7393 111.442V111.446ZM98.8167 85.0596C98.6641 84.8867 98.5074 84.6736 98.3186 84.4926C95.7238 81.987 93.125 79.4855 90.5261 76.98C84.031 70.7222 77.5198 64.4805 71.0448 58.1985C67.0923 54.3618 63.2 50.4567 59.2756 46.5918C53.7084 41.1061 48.1331 35.6285 42.5578 30.1469C39.4368 27.0783 36.2997 24.0218 33.1987 20.9331C32.6083 20.346 32.3954 20.4546 32.1986 21.2026C31.8933 22.3649 31.5318 23.5111 31.1984 24.6693C30.9694 25.4656 30.4954 25.9965 29.668 26.2378C27.6476 26.829 25.6472 27.4765 23.6268 28.0516C23.1729 28.1803 22.972 28.3935 22.8515 28.8278C22.3494 30.5933 21.759 32.3347 21.3091 34.1164C20.9596 35.4918 20.2607 36.3645 18.7986 36.5978C18.0796 36.7104 17.3887 37.008 16.6858 37.2091C16.2439 37.3338 15.5571 37.37 15.4607 37.7198C15.3281 38.1944 15.9708 38.5001 16.3082 38.8339C20.7066 43.1773 25.113 47.5087 29.5314 51.8281C35.649 57.8084 41.7745 63.7847 47.9041 69.7529C53.8168 75.508 59.7456 81.2471 65.6623 86.9981C70.7877 91.9811 75.9051 96.972 81.0144 101.971C81.4201 102.369 81.6691 102.458 82.127 101.995C87.5416 96.5377 92.9804 91.1003 98.407 85.6549C98.5637 85.494 98.7846 85.3693 98.8127 85.0556L98.8167 85.0596ZM90.1766 25.526C90.1927 26.2901 89.9557 26.8451 89.3773 27.2392C88.4012 27.8988 87.5336 27.746 86.5334 26.7405C83.9627 24.1626 81.3719 21.6048 78.8252 19.0027C78.295 18.4598 78.0259 18.4799 77.4957 19.0268C75.2825 21.3031 73.021 23.5272 70.7515 25.7471C70.2414 26.2458 70.153 26.6038 70.7194 27.1226C71.6312 27.9591 72.4868 28.8519 73.3624 29.7246C75.1579 31.5224 76.9655 33.304 78.7369 35.1258C79.5121 35.9221 79.5201 37.1447 78.8534 37.8526C78.1062 38.6489 76.9775 38.6971 76.0497 37.9611C75.8408 37.7963 75.6681 37.5912 75.4793 37.4021C72.9326 34.8483 70.378 32.2986 67.8394 29.7367C67.4618 29.3546 67.2208 29.3024 66.799 29.7367C63.8708 32.7128 60.9305 35.6808 57.9501 38.6006C57.3998 39.1395 57.5323 39.3889 57.9902 39.8313C60.1513 41.9226 62.2882 44.034 64.4291 46.1454C67.7349 49.403 71.0367 52.6646 74.3345 55.9302C74.7081 56.3002 75.0133 56.3887 75.4271 55.9705C77.4435 53.9314 79.484 51.9125 81.5084 49.8775C86.5495 44.8142 91.5825 39.7468 96.6236 34.6875C100.584 30.714 104.545 26.7445 108.525 22.7952C109.011 22.3126 109.164 22.0431 108.581 21.468C103.159 16.0789 97.7683 10.6616 92.3819 5.23632C91.8757 4.72556 91.5664 4.92262 91.1567 5.33284C88.0036 8.51001 84.8504 11.6912 81.6571 14.8281C81.0465 15.4274 81.0787 15.7531 81.6691 16.3283C84.2519 18.8499 86.7865 21.4198 89.3412 23.9736C89.7991 24.428 90.2289 24.8986 90.1807 25.53L90.1766 25.526ZM33.9459 81.6814C33.9459 82.8155 33.4759 83.4188 32.6725 83.7647C31.8652 84.1105 31.1703 83.8652 30.5758 83.27C27.8524 80.5634 25.121 77.8648 22.4258 75.134C22.012 74.7158 21.7991 74.7318 21.4095 75.13C19.4212 77.1569 17.4249 79.1759 15.3924 81.1545C14.9224 81.609 14.8943 81.8382 15.3763 82.3128C18.0475 84.935 20.6865 87.5893 23.3215 90.2477C24.3136 91.2491 24.3377 92.3551 23.434 93.2358C22.6266 94.0241 21.5581 93.9718 20.6062 93.0347C17.939 90.4126 15.2719 87.7944 12.6529 85.124C12.1348 84.5972 11.8777 84.6454 11.4077 85.124C9.44354 87.1268 7.47533 89.1296 5.45087 91.0681C4.83631 91.6553 4.83229 91.981 5.43882 92.5602C7.36687 94.4102 9.23467 96.3205 11.1266 98.2067C14.6252 101.698 18.1318 105.18 21.6144 108.691C22.0201 109.102 22.241 109.106 22.6427 108.695C24.8961 106.419 27.1816 104.175 29.4471 101.907C32.9176 98.4359 36.376 94.9531 39.8425 91.4783C43.7307 87.5813 47.6149 83.6762 51.5273 79.8032C52.0093 79.3247 51.8767 79.1196 51.471 78.7254C48.35 75.7091 45.2491 72.6727 42.1401 69.6444C39.7943 67.36 37.4525 65.0757 35.0906 62.8034C34.7773 62.5018 34.5243 61.9669 33.9057 62.6023C31.0337 65.5422 28.1255 68.4459 25.1893 71.3214C24.6912 71.808 24.8559 72.0051 25.2495 72.3952C27.9287 75.0536 30.5838 77.7401 33.255 80.4065C33.6807 80.8288 33.9619 81.2913 33.9499 81.6814H33.9459ZM13.0426 34.1807C14.2597 33.8308 15.4727 33.4568 16.6978 33.1391C17.2762 32.9903 17.5936 32.7208 17.7583 32.1176C18.2925 30.1871 18.9071 28.2808 19.4574 26.3544C19.7104 25.4737 20.2005 24.9147 21.1163 24.6774C22.3414 24.3556 23.5263 23.7926 24.7675 23.6237C26.9768 23.322 28.0774 22.2442 28.479 20.0001C28.8727 17.8002 29.0735 17.8485 26.8884 17.1648C19.9434 14.9971 13.0024 12.8173 6.0574 10.6455C5.8164 10.5691 5.53522 10.3479 5.32234 10.6013C5.15765 10.7984 5.37857 11.0357 5.44686 11.2528C6.29038 13.9635 7.1339 16.6701 7.98144 19.3767C9.45158 24.0902 10.9257 28.8077 12.3999 33.5212C12.5043 33.855 12.4762 34.3134 13.0506 34.1767L13.0426 34.1807ZM104.091 95.5926C104.115 93.1152 103.412 90.855 102.05 88.7878C101.693 88.2449 101.444 88.1282 100.942 88.6873C100.074 89.6565 99.1059 90.5372 98.1821 91.4582C93.9283 95.7092 89.6866 99.9722 85.4047 104.199C84.75 104.843 84.9548 105.148 85.5975 105.526C87.0757 106.395 88.6101 107.054 90.3413 107.308C97.6398 108.386 104.079 102.92 104.091 95.5885V95.5926Z" fill="#ADADAD"/>
</g>
<defs>
<clipPath id="clip0_28_169">
<rect width="114" height="114" fill="white"/>
</clipPath>
</defs>
</svg>
